
        <svg xmlns="http://www.w3.org/2000/svg" xmlns:xlink="http://www.w3.org/1999/xlink" version="1.1" width="3168.5393258426966" 
        height="1230.3370786516855" viewBox="0 0 3168.5393258426966 1230.3370786516855">
			
			<g transform="scale(8.426966292134832) translate(10, 10)">
				<defs id="SvgjsDefs4034"><linearGradient id="SvgjsLinearGradient4043"><stop id="SvgjsStop4044" stop-color="#2d388a" offset="0"></stop><stop id="SvgjsStop4045" stop-color="#00aeef" offset="1"></stop></linearGradient></defs><g id="SvgjsG4035" featureKey="LwVBM5-0" transform="matrix(1.1163922758791742,0,0,1.1163922758791742,-23.564807937805284,-9.297144559648864)" fill="url(#SvgjsLinearGradient4043)"><g xmlns="http://www.w3.org/2000/svg" display="none"><g display="inline"><rect x="1.677" y="0.968" fill="url(#SvgjsLinearGradient4043)" stroke="url(#SvgjsLinearGradient4043)" stroke-miterlimit="10" width="129" height="129"></rect><g><path fill="url(#SvgjsLinearGradient4043)" stroke="url(#SvgjsLinearGradient4043)" stroke-miterlimit="10" d="M110.677,31.147v-0.381c0-5.412-4.387-9.799-9.797-9.799h-0.383     c-0.953-5.673-5.876-10-11.82-10h-45c-5.943,0-10.865,4.327-11.819,10h-0.382c-5.411,0-9.799,4.387-9.799,9.799v0.381     c-5.672,0.954-10,5.876-10,11.82v45c0,5.945,4.328,10.867,10,11.821v0.381c0,5.412,4.388,9.798,9.799,9.798h0.382     c0.954,5.674,5.876,10,11.819,10h45c5.944,0,10.867-4.326,11.82-10h0.383c5.41,0,9.797-4.386,9.797-9.798v-0.381     c5.674-0.954,10-5.876,10-11.821v-45C120.677,37.023,116.351,32.102,110.677,31.147z"></path></g></g></g><g xmlns="http://www.w3.org/2000/svg"><path display="none" fill="url(#SvgjsLinearGradient4043)" d="M104.52,100.184H23.957l0.035-8.977c0.371-1.679,0.922-3.27,1.638-4.729   c0.596-1.282,1.421-2.543,2.511-3.826c1.136-1.338,2.615-2.35,4.396-3.006c0.67-0.278,7.537-3.893,12.552-6.531   c3.871-2.037,6.635-3.489,7.996-4.188v-2.496l-0.315-1.195c-0.165-0.585-0.338-1.204-0.527-1.838   c-0.207-0.692-0.451-1.444-0.726-2.245c-1.115-2.098-2.015-4.496-2.672-7.133c-0.094-0.378-0.17-0.758-0.246-1.138l-0.252-1.253   l0.887-0.549c1.343-0.831,2.145-2.261,2.145-3.826v-3.672c0-1.155-0.437-2.249-1.228-3.081l-0.489-0.514l0.087-0.704   c0.498-4.044,1.878-7.292,4.101-9.653c3.152-3.349,7.351-4.24,9.572-4.474l1.271-0.068l2.058,0.164   c2.049,0.307,5.921,1.284,8.834,4.376c2.223,2.362,3.602,5.61,4.1,9.655l0.087,0.704l-0.488,0.514   c-0.792,0.832-1.228,1.926-1.228,3.081v3.672c0,1.068,0.381,2.102,1.072,2.909l0.548,0.641l-0.262,0.801   c-0.527,1.612-1.392,2.949-2.57,3.975c-1.884,1.637-4.6,2.483-8.072,2.518l-0.638,0.006l-0.447-0.455   c-0.782-0.796-1.864-1.253-2.969-1.253c-2.297,0-4.166,1.869-4.166,4.167s1.869,4.167,4.166,4.167c0.923,0,1.832-0.313,2.562-0.884   l0.43-0.335l0.839,0.021c2.324,0,4.488-0.305,6.432-0.905l2.699-0.835l-1.104,3.653c-0.214,0.753-0.217,1.01-0.217,1.021v2.854   c1.482,0.762,4.576,2.406,8.945,4.73c4.485,2.386,10.067,5.356,10.656,5.607c1.794,0.646,3.298,1.658,4.435,2.995   c1.071,1.256,1.897,2.516,2.523,3.851c0.716,1.476,1.249,3.076,1.575,4.74l0.028,0.289V100.184z M46.485,75.771   c-10.078,5.303-12.501,6.557-12.963,6.708c-1.257,0.465-2.286,1.162-3.095,2.115c-0.913,1.075-1.597,2.115-2.091,3.178   c-0.602,1.227-1.062,2.539-1.38,3.927v5.485h74.562v-5.503c-0.279-1.361-0.72-2.668-1.312-3.887   c-0.519-1.107-1.203-2.146-2.099-3.197c-0.807-0.949-1.854-1.646-3.204-2.132c-0.396-0.136-2.354-1.161-11.013-5.768   c-4.271-2.272-9.11-4.848-9.635-5.075l-0.899-0.394l-0.002-4.764c0-0.111,0.007-0.232,0.02-0.362   c-1.491,0.277-3.062,0.421-4.699,0.429c-1.17,0.775-2.557,1.197-3.962,1.197c-3.951,0-7.166-3.215-7.166-7.167   s3.215-7.167,7.166-7.167c1.678,0,3.322,0.608,4.608,1.688c2.45-0.102,4.315-0.695,5.55-1.768c0.592-0.515,1.066-1.165,1.415-1.94   c-0.802-1.214-1.235-2.647-1.235-4.12v-3.672c0-1.674,0.55-3.274,1.562-4.578c-0.476-3.093-1.557-5.553-3.218-7.319   c-2.27-2.409-5.365-3.2-7.043-3.458l-1.703-0.133l-0.998,0.052c-1.376,0.146-5.04,0.798-7.622,3.541   c-1.661,1.765-2.742,4.225-3.218,7.317c1.013,1.304,1.563,2.903,1.563,4.578v3.672c0,2.25-0.989,4.331-2.69,5.747   c0.021,0.1,0.045,0.198,0.068,0.296c0.608,2.438,1.437,4.64,2.461,6.543l0.097,0.223c0.306,0.885,0.575,1.714,0.804,2.477   c0.193,0.65,0.372,1.285,0.548,1.913l0.42,1.784v4.587 M83.944,40.72c-0.356-5.843-2.158-10.519-5.395-13.939   c-5.564-5.883-13.274-5.829-13.836-5.811c-0.588-0.017-8.279-0.062-13.835,5.811c-3.235,3.421-5.038,8.096-5.394,13.939   c-1.063,0.519-1.804,1.6-1.804,2.863v3.672c0,1.766,1.43,3.195,3.193,3.195s3.194-1.429,3.194-3.195v-3.672   c0-1.25-0.726-2.321-1.772-2.845c0.337-5.08,1.872-9.106,4.599-12.003c4.769-5.067,11.722-4.962,11.781-4.958l0.038-1.354   l0.039,1.354c0.054-0.003,7.01-0.108,11.779,4.957c2.727,2.896,4.262,6.923,4.599,12.004c-1.047,0.524-1.771,1.595-1.771,2.845   v3.672c0,1.243,0.716,2.308,1.75,2.836c-0.22,1.462-0.951,4.337-3.412,6.476c-2.407,2.092-5.899,3.025-10.39,2.809   c-0.451-0.984-1.439-1.672-2.594-1.672c-1.579,0-2.858,1.279-2.858,2.858s1.279,2.858,2.858,2.858c0.981,0,1.845-0.494,2.36-1.246   c0.496,0.024,0.993,0.051,1.471,0.051c4.62,0,8.319-1.196,11.03-3.57c3.332-2.92,4.16-6.771,4.367-8.536   c1.065-0.517,1.805-1.599,1.805-2.864v-3.672C85.748,42.319,85.009,41.238,83.944,40.72z"></path><path display="none" fill="url(#SvgjsLinearGradient4043)" d="M90.969,51.772H40.927v-3h50.042V51.772z M82.177,35.772H49.719v3h32.458V35.772z    M90.969,56.772H40.927v3h50.042V56.772z M90.969,64.772H40.927v3h50.042V64.772z M90.969,72.772H40.927v3h50.042V72.772z    M90.969,80.772H40.927v3h50.042V80.772z M95.497,21.092h-58.64c-2.762,0-5,2.238-5,5v78.75c0,2.762,2.238,5,5,5H81.8   c-2.067-0.482-3.915-1.538-5.358-3H36.857c-1.103,0-2-0.896-2-2v-78.75c0-1.104,0.897-2,2-2h58.64c1.103,0,2,0.896,2,2v78.75   c0,1.104-0.897,2-2,2h-3.312c-1.443,1.462-3.291,2.518-5.358,3h8.67c2.762,0,5-2.238,5-5v-78.75   C100.497,23.331,98.259,21.092,95.497,21.092z M80.278,88.772H40.927v3h35.084C77.166,90.459,78.624,89.422,80.278,88.772z    M90.969,88.772h-2.62c0.944,0.371,1.822,0.869,2.62,1.473V88.772z M92.384,99.071c0,3.711-2.508,6.829-5.92,7.771   c-0.686,0.189-1.404,0.299-2.15,0.299s-1.465-0.109-2.15-0.299c-3.412-0.942-5.92-4.061-5.92-7.771c0-3.23,1.901-6.009,4.642-7.299   C81.927,91.282,83.086,91,84.313,91s2.387,0.282,3.429,0.772C90.482,93.062,92.384,95.84,92.384,99.071z M89.151,95.901   c-0.336-0.335-0.775-0.503-1.214-0.503c-0.439,0-0.879,0.168-1.214,0.503l-3.459,3.461L81.903,98   c-0.336-0.336-0.774-0.503-1.214-0.503S79.812,97.665,79.476,98c-0.671,0.67-0.671,1.758,0,2.428l2.575,2.574   c0.321,0.322,0.759,0.504,1.214,0.504s0.893-0.182,1.214-0.504l4.673-4.674C89.822,97.659,89.822,96.571,89.151,95.901z"></path><path display="none" fill="url(#SvgjsLinearGradient4043)" d="M47.459,64.786c0-1.415-1.146-2.562-2.561-2.562h-4.098c-1.414,0-2.561,1.146-2.561,2.562   v4.694c0,1.414,1.146,2.561,2.561,2.561h4.098c1.414,0,2.561-1.146,2.561-2.561V64.786z M59.465,64.786   c0-1.415-1.146-2.562-2.561-2.562h-4.098c-1.414,0-2.561,1.146-2.561,2.562v4.694c0,1.414,1.146,2.561,2.561,2.561h4.098   c1.414,0,2.561-1.146,2.561-2.561V64.786z M71.471,64.786c0-1.415-1.146-2.562-2.561-2.562h-4.098   c-1.414,0-2.561,1.146-2.561,2.562v4.694c0,1.414,1.146,2.561,2.561,2.561h4.098c1.414,0,2.561-1.146,2.561-2.561V64.786z    M44.898,78.558c0.309,0,0.561,0.252,0.561,0.561v4.694c0,0.31-0.252,0.562-0.561,0.562h-4.098c-0.31,0-0.561-0.252-0.561-0.562   v-4.694c0-0.309,0.251-0.561,0.561-0.561H44.898 M44.898,76.558h-4.098c-1.414,0-2.561,1.146-2.561,2.561v4.694   c0,1.415,1.146,2.562,2.561,2.562h4.098c1.414,0,2.561-1.146,2.561-2.562v-4.694C47.459,77.705,46.312,76.558,44.898,76.558   L44.898,76.558z M56.904,78.558c0.309,0,0.561,0.252,0.561,0.561v4.694c0,0.31-0.252,0.562-0.561,0.562h-4.098   c-0.309,0-0.561-0.252-0.561-0.562v-4.694c0-0.309,0.252-0.561,0.561-0.561H56.904 M56.904,76.558h-4.098   c-1.414,0-2.561,1.146-2.561,2.561v4.694c0,1.415,1.146,2.562,2.561,2.562h4.098c1.414,0,2.561-1.146,2.561-2.562v-4.694   C59.465,77.705,58.318,76.558,56.904,76.558L56.904,76.558z M68.91,78.558c0.31,0,0.561,0.252,0.561,0.561v4.694   c0,0.31-0.251,0.562-0.561,0.562h-4.098c-0.309,0-0.561-0.252-0.561-0.562v-4.694c0-0.309,0.252-0.561,0.561-0.561H68.91    M68.91,76.558h-4.098c-1.414,0-2.561,1.146-2.561,2.561v4.694c0,1.415,1.146,2.562,2.561,2.562h4.098   c1.414,0,2.561-1.146,2.561-2.562v-4.694C71.471,77.705,70.324,76.558,68.91,76.558L68.91,76.558z M80.916,78.558   c0.311,0,0.562,0.252,0.562,0.561v4.694c0,0.31-0.251,0.562-0.562,0.562h-4.097c-0.31,0-0.562-0.252-0.562-0.562v-4.694   c0-0.309,0.252-0.561,0.562-0.561H80.916 M80.916,76.558h-4.097c-1.415,0-2.562,1.146-2.562,2.561v4.694   c0,1.415,1.146,2.562,2.562,2.562h4.097c1.415,0,2.562-1.146,2.562-2.562v-4.694C83.478,77.705,82.331,76.558,80.916,76.558   L80.916,76.558z M79.053,71.239l5.252-5.253c0.754-0.754,0.754-1.976,0-2.729c-0.754-0.754-1.976-0.754-2.729,0l-3.888,3.889   l-1.53-1.53c-0.754-0.753-1.975-0.753-2.729,0s-0.754,1.976,0,2.729l2.895,2.894c0.361,0.362,0.853,0.565,1.364,0.565   S78.691,71.601,79.053,71.239z M76.865,64.908l0.823,0.824l3.181-3.182c0.11-0.11,0.233-0.203,0.357-0.295   c-0.103-0.012-0.203-0.031-0.311-0.031h-4.097c-1.173,0-2.15,0.793-2.454,1.869c0.142-0.021,0.283-0.043,0.429-0.043   C75.576,64.05,76.312,64.355,76.865,64.908z M79.645,72.041h1.271c1.415,0,2.562-1.146,2.562-2.561v-1.252l-3.718,3.718   C79.725,71.982,79.682,72.007,79.645,72.041z M101.535,49.235c-0.241-0.432-0.666-0.692-1.121-0.751v-5.826v-3v-0.982v-2.314   c0-0.295-0.04-0.58-0.088-0.861c-0.412-2.468-2.541-4.353-5.125-4.353h-4.318c-1.381-3.778-5.006-6.485-9.257-6.485   c-4.249,0-7.869,2.708-9.251,6.485H54.17c-1.381-3.778-5.006-6.485-9.257-6.485c-5.436,0-9.857,4.422-9.857,9.857   c0,0.298,0.019,0.591,0.044,0.882l-0.105,0.048c-0.031,0.014-0.062,0.029-0.094,0.043l-0.127,0.057h0.021   c-1.779,0.83-3.021,2.623-3.021,4.716v12.87c-0.828,0-1.5,0.671-1.5,1.5c0,0.828,0.672,1.5,1.5,1.5v38.44   c0,2.88,2.334,5.214,5.213,5.214h42.163h1h3l4.175-4.353h4.475c2.141-0.397,3.811-2.101,4.17-4.255   c2.422-0.451,4.258-2.566,4.258-5.117V51.686l0.732-0.409C101.682,50.873,101.939,49.958,101.535,49.235z M97.188,35.403   c0.141,0.291,0.227,0.613,0.227,0.958v2.042v1.255v3v7.164l-5.615,3.143v-6.402v-3V42.58v-2.315c0-0.295-0.04-0.579-0.088-0.861   c-0.412-2.468-2.541-4.353-5.125-4.353H74.795c-0.014-0.176-0.026-0.352-0.026-0.531c0-0.125,0.013-0.248,0.019-0.372h20.414   C96.076,34.147,96.828,34.663,97.188,35.403z M81.626,27.662c2.554,0,4.78,1.408,5.96,3.485H75.662   C76.842,29.07,79.07,27.662,81.626,27.662z M71.795,35.05H42.348l2.143-0.903h27.297c-0.004,0.124-0.019,0.247-0.019,0.372   C71.769,34.699,71.786,34.874,71.795,35.05z M44.913,27.662c2.554,0,4.78,1.408,5.96,3.485h-5.271   c-0.676,0-1.316,0.139-1.909,0.372h-0.021l-0.047,0.021c-0.046,0.02-0.09,0.041-0.135,0.061l-5.41,2.451   C38.321,30.489,41.289,27.662,44.913,27.662z M34.773,40.264c0-0.801,0.432-1.497,1.07-1.886c1.505,3.523,5.003,5.998,9.069,5.998   c0.829,0,1.5-0.671,1.5-1.5c0-0.828-0.671-1.5-1.5-1.5c-2.489,0-4.665-1.336-5.867-3.326h33.388   c1.424,3.694,5.002,6.326,9.192,6.326c0.829,0,1.5-0.671,1.5-1.5c0-0.828-0.671-1.5-1.5-1.5c-2.489,0-4.665-1.336-5.867-3.326   h10.827c0.875,0,1.627,0.516,1.986,1.256c0.141,0.291,0.227,0.613,0.227,0.958v2.042v1.256v3v6.572H34.773V40.264z M36.986,96.789   c-1.22,0-2.213-0.993-2.213-2.214v-38.44h54.111v31.547h-3.735c-2.761,0-5,2.238-5,5v4.107H36.986z M83.149,95.671v-2.99   c0-1.103,0.897-2,2-2h2.849L83.149,95.671z M93.056,90.32c0,0.344-0.086,0.666-0.228,0.957c-0.203,0.42-0.549,0.761-1.029,0.982   h-1.428l1.514-1.578v-2.404v-0.596v-1V56.134h0.392l0.779-0.437v32.579V90.32z M97.227,86.064c0,0.841-0.479,1.565-1.171,1.939   V54.019l1.171-0.654V86.064z"></path><path display="none" fill="url(#SvgjsLinearGradient4043)" d="M101.711,51.722c-0.241-0.432-0.666-0.692-1.121-0.751v-5.826v-3v-0.982v-2.315   c0-0.295-0.039-0.58-0.086-0.861c-0.412-2.467-2.543-4.352-5.127-4.352H91.06c-1.382-3.779-5.006-6.486-9.257-6.486   c-4.25,0-7.87,2.709-9.251,6.486H54.347c-1.382-3.779-5.006-6.486-9.257-6.486c-5.436,0-9.857,4.422-9.857,9.857   c0,0.298,0.019,0.592,0.045,0.883l-0.106,0.048c-0.031,0.013-0.062,0.028-0.093,0.042l-0.127,0.058h0.021   c-1.78,0.829-3.021,2.622-3.021,4.716V55.62c-0.828,0-1.5,0.672-1.5,1.5s0.672,1.5,1.5,1.5v38.441c0,2.879,2.334,5.213,5.213,5.213   h42.162h1h3l4.174-4.352h4.475c2.143-0.398,3.811-2.102,4.171-4.256c2.421-0.449,4.257-2.566,4.257-5.117V54.173l0.732-0.41   C101.857,53.358,102.116,52.444,101.711,51.722z M97.363,37.89c0.141,0.291,0.227,0.613,0.227,0.957v2.043v1.255v3v7.165   l-5.615,3.142v-6.404v-3v-0.982v-2.314c0-0.295-0.039-0.58-0.086-0.861c-0.412-2.468-2.543-4.353-5.127-4.353H74.973   c-0.014-0.176-0.027-0.353-0.027-0.532c0-0.125,0.012-0.247,0.019-0.371h20.413C96.254,36.634,97.006,37.149,97.363,37.89z    M81.803,30.147c2.555,0,4.78,1.408,5.96,3.486H75.838C77.018,31.556,79.247,30.147,81.803,30.147z M71.973,37.537H42.523   l2.142-0.903h27.299c-0.004,0.124-0.019,0.246-0.019,0.371C71.945,37.185,71.963,37.359,71.973,37.537z M45.09,30.147   c2.555,0,4.78,1.408,5.96,3.486h-5.271c-0.675,0-1.315,0.139-1.908,0.372h-0.023l-0.052,0.023c-0.04,0.017-0.078,0.036-0.118,0.054   l-5.422,2.455C38.498,32.975,41.466,30.147,45.09,30.147z M34.951,42.751c0-0.801,0.432-1.497,1.07-1.886   c1.505,3.522,5.002,5.998,9.068,5.998c0.828,0,1.5-0.671,1.5-1.5s-0.672-1.5-1.5-1.5c-2.488,0-4.665-1.337-5.867-3.326H72.61   c1.425,3.693,5.003,6.326,9.192,6.326c0.828,0,1.5-0.671,1.5-1.5s-0.672-1.5-1.5-1.5c-2.488,0-4.665-1.337-5.867-3.326h10.826   c0.877,0,1.629,0.516,1.986,1.256c0.141,0.291,0.227,0.613,0.227,0.958v2.042v1.255v3v6.572H34.951V42.751z M37.164,99.274   c-1.221,0-2.213-0.992-2.213-2.213V58.62h54.111v31.547h-3.736c-2.762,0-5,2.24-5,5v4.107H37.164z M83.326,98.159v-2.992   c0-1.102,0.896-2,2-2h2.85L83.326,98.159z M93.232,92.805c0,0.344-0.086,0.666-0.227,0.957c-0.203,0.42-0.551,0.762-1.031,0.982   h-1.426l1.514-1.578v-2.404v-0.596v-1V58.62h0.391l0.779-0.436v32.578V92.805z M97.402,88.549c0,0.842-0.477,1.566-1.17,1.939   V56.506l1.17-0.656V88.549z M70.963,72.78V67.5c0-1.59,1.288-2.879,2.878-2.879h4.607c1.59,0,2.878,1.289,2.878,2.879v5.279   c0,1.59-1.288,2.879-2.878,2.879h-4.607C72.251,75.659,70.963,74.37,70.963,72.78z M81.326,88.891v-5.275   c0-1.592-1.288-2.881-2.878-2.881h-4.607c-1.59,0-2.878,1.289-2.878,2.881v5.275c0,1.592,1.288,2.881,2.878,2.881h4.607   C80.038,91.772,81.326,90.483,81.326,88.891z M79.078,88.891c0,0.35-0.283,0.633-0.63,0.633h-4.607c-0.348,0-0.63-0.283-0.63-0.633   v-5.275c0-0.348,0.282-0.631,0.63-0.631h4.607c0.347,0,0.63,0.283,0.63,0.631V88.891z M55.465,72.78V67.5   c0-1.59,1.288-2.879,2.879-2.879h4.606c1.59,0,2.879,1.289,2.879,2.879v5.279c0,1.59-1.289,2.879-2.879,2.879h-4.606   C56.753,75.659,55.465,74.37,55.465,72.78z M66.76,81.897c0.848,0.846,0.848,2.221,0,3.068l-5.904,5.904   c-0.407,0.406-0.959,0.637-1.534,0.637s-1.127-0.23-1.533-0.637l-3.254-3.254c-0.848-0.846-0.848-2.221,0-3.068   c0.848-0.846,2.22-0.846,3.067,0l1.72,1.721l4.371-4.371C64.538,81.049,65.913,81.049,66.76,81.897z M50.332,67.5v5.279   c0,1.59-1.289,2.879-2.88,2.879h-4.605c-1.591,0-2.88-1.289-2.88-2.879V67.5c0-1.59,1.289-2.879,2.88-2.879h4.605   C49.043,64.622,50.332,65.911,50.332,67.5z M61.65,91.665l4.179-4.18v1.408c0,1.59-1.289,2.879-2.879,2.879h-1.43   C61.562,91.735,61.61,91.704,61.65,91.665z M50.332,83.616v5.275c0,1.592-1.289,2.881-2.88,2.881h-4.605   c-1.591,0-2.88-1.289-2.88-2.881v-5.275c0-1.592,1.289-2.881,2.88-2.881h4.605C49.043,80.735,50.332,82.024,50.332,83.616z    M62.95,80.735c0.12,0,0.233,0.021,0.35,0.035c-0.141,0.104-0.279,0.207-0.403,0.332l-3.575,3.576l-0.925-0.926   c-0.622-0.621-1.449-0.963-2.329-0.963c-0.163,0-0.323,0.023-0.481,0.047c0.341-1.209,1.44-2.102,2.758-2.102H62.95z"></path><path display="none" fill="url(#SvgjsLinearGradient4043)" d="M77.098,71.687v-5.571c0-1.677,1.359-3.038,3.037-3.038h4.861   c1.677,0,3.037,1.361,3.037,3.038v5.571c0,1.677-1.36,3.038-3.037,3.038h-4.861C78.458,74.725,77.098,73.364,77.098,71.687z    M67.135,91.727h1.508c1.678,0,3.037-1.361,3.037-3.038v-1.486l-4.409,4.41C67.229,91.654,67.179,91.688,67.135,91.727z    M77.098,88.687V83.12c0-1.679,1.359-3.04,3.037-3.04h4.861c1.677,0,3.037,1.361,3.037,3.04v5.567c0,1.679-1.36,3.04-3.037,3.04   h-4.861C78.458,91.727,77.098,90.366,77.098,88.687z M79.47,88.687c0,0.368,0.298,0.667,0.666,0.667h4.861   c0.365,0,0.665-0.299,0.665-0.667V83.12c0-0.367-0.299-0.665-0.665-0.665h-4.861c-0.367,0-0.666,0.298-0.666,0.665V88.687z    M47.431,91.727h4.859c1.679,0,3.04-1.361,3.04-3.04V83.12c0-1.679-1.361-3.04-3.04-3.04h-4.859c-1.678,0-3.039,1.361-3.039,3.04   v5.567C44.393,90.366,45.753,91.727,47.431,91.727z M63.196,90.774c0.429,0.429,1.012,0.672,1.618,0.672s1.189-0.243,1.619-0.672   l6.23-6.23c0.894-0.894,0.894-2.345,0-3.237c-0.894-0.895-2.344-0.895-3.237,0l-4.612,4.612L63,84.104   c-0.895-0.893-2.342-0.893-3.237,0c-0.894,0.894-0.894,2.345,0,3.237L63.196,90.774z M63.783,74.725h4.86   c1.678,0,3.037-1.361,3.037-3.038v-5.571c0-1.677-1.359-3.038-3.037-3.038h-4.86c-1.679,0-3.038,1.361-3.038,3.038v5.571   C60.746,73.364,62.104,74.725,63.783,74.725z M47.431,74.725h4.859c1.679,0,3.04-1.361,3.04-3.038v-5.571   c0-1.677-1.361-3.038-3.04-3.038h-4.859c-1.678,0-3.039,1.361-3.039,3.038v5.571C44.393,73.364,45.753,74.725,47.431,74.725z    M63.783,80.081c-1.391,0-2.551,0.941-2.91,2.218c0.166-0.025,0.336-0.05,0.508-0.05c0.928,0,1.801,0.36,2.457,1.016l0.976,0.977   l3.772-3.773c0.131-0.132,0.277-0.241,0.426-0.351c-0.123-0.014-0.243-0.037-0.369-0.037H63.783z M102.095,53.588   c0,0.94-0.763,1.704-1.703,1.704v34.687v1.135v0.677v2.73l-9.92,10.342h-3.407h-1.136H38.053c-3.269,0-5.919-2.65-5.919-5.919   V55.292c-0.94,0-1.703-0.763-1.703-1.704c0-0.94,0.763-1.703,1.703-1.703V37.272c0-3.27,2.65-5.92,5.919-5.92h4.637v-4.109   c0-0.94,0.763-1.703,1.703-1.703s1.703,0.763,1.703,1.703v4.109h39.582v-4.109c0-0.94,0.763-1.703,1.703-1.703   s1.704,0.763,1.704,1.703v4.109h5.29c2.934,0,5.353,2.14,5.82,4.942c0.053,0.319,0.099,0.643,0.099,0.978V39.9v1.116v3.407v7.463   h0.099C101.332,51.885,102.095,52.648,102.095,53.588z M35.54,51.885h61.347v-7.463v-3.407v-1.425v-2.319   c0-0.392-0.098-0.757-0.257-1.088c-0.407-0.84-1.261-1.426-2.255-1.426h-5.29v7.437c0,0.94-0.763,1.704-1.704,1.704   s-1.703-0.763-1.703-1.704v-7.437H46.096v7.437c0,0.94-0.763,1.704-1.703,1.704s-1.703-0.763-1.703-1.704v-7.437h-4.637   c-1.386,0-2.513,1.128-2.513,2.514V51.885z M95.979,94.521h-3.236c-1.252,0-2.271,1.02-2.271,2.271v3.396L95.979,94.521z    M96.985,55.292H35.54v43.651c0,1.386,1.126,2.513,2.513,2.513h49.012v-4.664c0-3.135,2.543-5.678,5.678-5.678h4.243V55.292z"></path><path display="none" fill="url(#SvgjsLinearGradient4043)" d="M54.263,76.843c1.579-0.723,2.707-1.246,2.958-1.375v-3.55l-0.249-0.944   c-0.131-0.462-0.267-0.951-0.416-1.451c-0.164-0.546-0.356-1.141-0.574-1.773c-0.88-1.657-1.591-3.551-2.109-5.633   c-0.075-0.299-0.135-0.598-0.195-0.898l-0.03-0.148c1.832-0.569,3.166-2.281,3.166-4.296v-2.899c0-1.211-0.48-2.336-1.309-3.164   c0.357-3.046,1.365-5.468,3.003-7.208c2.305-2.448,5.448-3.078,6.954-3.239l0.903-0.048l1.585,0.129   c1.639,0.259,4.321,1.003,6.348,3.158c1.639,1.74,2.647,4.163,3.004,7.21c-0.827,0.826-1.308,1.951-1.308,3.162v2.899   c0,1.136,0.424,2.199,1.163,3.009c-0.276,0.897-0.799,1.987-1.795,2.854c-1.332,1.157-3.308,1.749-5.872,1.758   c-0.788-0.842-1.9-1.345-3.086-1.345c-2.333,0-4.231,1.897-4.231,4.231s1.898,4.232,4.231,4.232c0.983,0,1.924-0.343,2.669-0.949   c0.12,0.002,0.239,0.004,0.356,0.004c2.622,0,4.932-0.451,6.915-1.337l-0.577,1.905c-0.168,0.595-0.17,0.797-0.17,0.807v3.832   c0.23,0.118,1.045,0.499,2.202,1.034c-0.793,5.794-5.762,10.277-11.771,10.277C60.032,87.089,55.071,82.623,54.263,76.843z    M52.318,59.299c1.393,0,2.522-1.129,2.522-2.522v-2.899c0-0.988-0.573-1.833-1.399-2.247c0.266-4.01,1.478-7.19,3.631-9.478   c3.765-4,9.255-3.919,9.302-3.915l0.03-1.069l0.031,1.069c0.043-0.003,5.535-0.086,9.301,3.914   c2.153,2.288,3.365,5.467,3.631,9.479c-0.827,0.414-1.399,1.259-1.399,2.247v2.899c0,0.981,0.565,1.823,1.382,2.239   c-0.173,1.155-0.75,3.426-2.695,5.115c-1.9,1.651-4.657,2.389-8.203,2.217c-0.356-0.776-1.137-1.32-2.048-1.32   c-1.247,0-2.257,1.011-2.257,2.257c0,1.247,1.01,2.257,2.257,2.257c0.774,0,1.456-0.391,1.863-0.984   c0.392,0.02,0.785,0.039,1.163,0.039c3.648,0,6.569-0.944,8.709-2.818c2.631-2.307,3.285-5.347,3.448-6.74   c0.841-0.409,1.425-1.263,1.425-2.263v-2.899c0-0.998-0.584-1.851-1.424-2.261c-0.282-4.614-1.705-8.305-4.26-11.007   c-4.395-4.645-10.481-4.602-10.924-4.587c-0.465-0.014-6.539-0.049-10.926,4.587c-2.555,2.702-3.978,6.393-4.259,11.007   c-0.839,0.411-1.424,1.263-1.424,2.261v2.899C49.796,58.169,50.925,59.299,52.318,59.299z M100.183,93.09   c-0.257-1.314-0.679-2.579-1.244-3.743c-0.494-1.054-1.146-2.049-1.992-3.041c-0.898-1.056-2.086-1.856-3.502-2.366   c-0.33-0.14-8.554-3.874-13.743-6.254c-1.18,6.483-6.855,11.417-13.674,11.417c-6.809,0-12.479-4.921-13.67-11.391   c-5.402,2.465-13.372,6.071-13.732,6.221c-1.406,0.518-2.573,1.316-3.471,2.374c-0.861,1.012-1.512,2.008-1.982,3.021   c-0.565,1.152-1.001,2.408-1.294,3.734l-0.027,6.655h8.67h2.486h46.042h2.486h8.669v-6.399L100.183,93.09z"></path><g display="none"><path display="inline" fill="url(#SvgjsLinearGradient4043)" d="M83.474,27.024c11.216,0,20.341,9.125,20.341,20.341c0,8.341-5.002,15.748-12.744,18.869    l-0.657,0.265l-0.469,0.53l-3.472,3.925v-0.249v-3h-3c-11.216,0-20.341-9.125-20.341-20.341S72.258,27.024,83.474,27.024     M86.856,47.021c-0.89-0.879-2.115-1.405-3.507-1.405c-1.401,0-2.635,0.526-3.531,1.405c-0.89-0.879-2.114-1.405-3.506-1.405    c-2.873,0-5.04,2.21-5.04,5.142c0,2.883,2.199,5.142,5.006,5.142c1.411,0,2.651-0.533,3.548-1.422    c0.895,0.885,2.12,1.422,3.489,1.422c1.411,0,2.651-0.533,3.549-1.423c0.896,0.885,2.12,1.423,3.489,1.423    c2.873,0,5.04-2.21,5.04-5.142s-2.152-5.142-5.006-5.142C88.986,45.615,87.752,46.141,86.856,47.021 M31.494,42.36l9.665,9.649    l-2.181,2.177l-9.666-9.649L31.494,42.36 M25.331,52.147l7.975,7.96c-1.11,1.238-1.717,2.82-1.716,4.495    c0,1.802,0.703,3.496,1.979,4.769l24.823,24.78c1.275,1.271,2.969,1.972,4.771,1.972c1.677,0,3.261-0.607,4.501-1.717l7.968,7.954    c-1.383,0.24-2.732,0.358-4.064,0.358c-8.54,0-16.735-4.86-29.23-17.335C28.381,71.451,23.543,62.381,25.331,52.147     M75.654,86.444l9.666,9.648l-2.181,2.177l-9.666-9.648L75.654,86.444 M83.474,24.024c-12.891,0-23.341,10.45-23.341,23.341    s10.45,23.341,23.341,23.341v8.169l8.719-9.858c8.57-3.455,14.622-11.844,14.622-21.651    C106.814,34.475,96.364,24.024,83.474,24.024L83.474,24.024z M90.354,52.898c-1.189,0-2.006-0.918-2.006-2.142    c0-1.258,0.851-2.142,2.04-2.142s2.006,0.884,2.006,2.142C92.394,51.98,91.611,52.898,90.354,52.898L90.354,52.898z     M83.315,52.898c-1.189,0-2.006-0.918-2.006-2.142c0-1.258,0.851-2.142,2.04-2.142s2.006,0.884,2.006,2.142    C85.355,51.98,84.573,52.898,83.315,52.898L83.315,52.898z M76.278,52.898c-1.189,0-2.006-0.918-2.006-2.142    c0-1.258,0.851-2.142,2.04-2.142s2.006,0.884,2.006,2.142C78.318,51.98,77.536,52.898,76.278,52.898L76.278,52.898z     M31.494,38.699c-0.357,0-0.715,0.136-0.988,0.409l-5.439,5.43l13.912,13.889l5.439-5.431c0.545-0.544,0.546-1.429,0-1.972    L32.482,39.107C32.209,38.835,31.852,38.699,31.494,38.699L31.494,38.699z M23.775,46.355c-5.256,15.02,1.211,25.945,16.441,41.15    c11.713,11.693,20.892,18.212,31.35,18.212c3.141,0,6.396-0.588,9.872-1.8L67.67,90.174l-1.856,1.854    c-0.732,0.73-1.692,1.096-2.652,1.096s-1.919-0.365-2.652-1.096L35.688,67.248c-1.465-1.462-1.465-3.832,0-5.295l1.857-1.853    L23.775,46.355L23.775,46.355z M75.654,82.783c-0.358,0-0.715,0.136-0.988,0.409l-5.439,5.43l13.912,13.887l5.439-5.43    c0.545-0.545,0.545-1.428,0-1.973L76.643,83.191C76.37,82.919,76.012,82.783,75.654,82.783L75.654,82.783z"></path></g><g display="none"><path display="inline" fill="url(#SvgjsLinearGradient4043)" d="M95.311,30.894c1.453,0,2.819,0.566,3.846,1.593c1.337,1.338,1.831,3.204,1.482,4.933    l-6.417-6.417C94.576,30.931,94.94,30.894,95.311,30.894 M87.806,36.146l7.693,7.692l-0.865,0.865l-7.693-7.692L87.806,36.146     M80.904,43.048l7.693,7.692L46.685,92.652l-7.693-7.692L80.904,43.048 M34.526,92.531l4.587,4.587l-1.46,0.391l-3.518-3.519    L34.526,92.531 M95.311,27.894c-2.16,0-4.32,0.824-5.968,2.472l11.936,11.936c3.295-3.296,3.295-8.639,0-11.936    C99.63,28.718,97.47,27.894,95.311,27.894L95.311,27.894z M87.806,31.904l-5.107,5.107l11.936,11.935l5.107-5.107L87.806,31.904    L87.806,31.904z M80.904,38.805L34.749,84.96l11.936,11.935L92.84,50.74L80.904,38.805L80.904,38.805z M32.974,86.736    l-2.185,8.151l5.968,5.969l8.152-2.185L32.974,86.736L32.974,86.736z M30.142,97.304l-1.537,5.736l5.736-1.537L30.142,97.304    L30.142,97.304z"></path></g><path display="none" fill="url(#SvgjsLinearGradient4043)" d="M65.371,38.907c-12.083,0-21.876,9.794-21.876,21.876c0,5.426,1.985,10.378,5.255,14.201   c0,0,4.285,4.453,6.116,8.781c-0.465,0.547-0.756,1.247-0.756,2.021v3.119l-0.494,0.172c-0.782,0.272-1.195,1.128-0.923,1.91   c0.216,0.619,0.796,1.007,1.417,1.007v3.276l-0.494,0.172c-0.782,0.272-1.195,1.128-0.923,1.91   c0.216,0.619,0.796,1.007,1.417,1.007v1.917c0,1.734,1.406,3.14,3.14,3.14h0.612c0,4.14,3.369,7.508,7.51,7.508   c4.14,0,7.508-3.368,7.508-7.508h0.612c1.734,0,3.141-1.406,3.141-3.14v-3.374l0.494-0.172c0.782-0.272,1.195-1.128,0.923-1.91   c-0.216-0.619-0.795-1-1.417-1V90.6l0.494-0.172c0.782-0.272,1.195-1.128,0.923-1.91c-0.216-0.619-0.795-1-1.417-1v-1.731   c0-0.771-0.289-1.468-0.75-2.014c1.833-4.329,6.13-8.789,6.13-8.789c3.271-3.822,5.236-8.774,5.236-14.2   C87.248,48.702,77.454,38.907,65.371,38.907z M61.728,76.723c-0.626-1.892-2.09-7.11-3.082-10.694c0.046,0,0.093-0.001,0.139-0.003   c0.857-0.038,1.642-0.402,2.347-1.087c0.951,1.191,2.359,2.227,4.238,2.227s3.288-1.035,4.238-2.227   c0.705,0.685,1.489,1.049,2.347,1.087c0.047,0.002,0.093,0.003,0.139,0.003c-0.992,3.584-2.456,8.803-3.082,10.694   c-0.518,1.563-0.945,3.91-1.25,5.924h-4.784C62.673,80.633,62.246,78.287,61.728,76.723z M57.109,85.786   c0-0.077,0.063-0.139,0.14-0.139h6.21l-6.351,2.213V85.786z M57.109,91.037l10.147-3.536c0.764-0.266,1.171-1.087,0.937-1.854   h5.298c0.078,0,0.141,0.062,0.141,0.139v2.682l-16.522,5.756V91.037z M65.371,107.923c-2.487,0-4.51-2.022-4.51-4.508h9.018   C69.879,105.901,67.857,107.923,65.371,107.923z M73.632,100.275c0,0.077-0.063,0.14-0.141,0.14h-6.943l7.083-2.468V100.275z    M73.632,94.771l-10.147,3.536c-0.782,0.272-1.195,1.128-0.923,1.91c0.026,0.074,0.072,0.132,0.107,0.199H57.25   c-0.077,0-0.14-0.063-0.14-0.14v-2.874l16.522-5.756V94.771z M79.787,72.97c-1.075,1.122-4.84,5.246-6.686,9.677h-2.305   c0.278-1.774,0.643-3.712,1.062-4.98c1.011-3.054,3.998-14.001,4.124-14.466c0.195-0.718-0.167-1.466-0.848-1.765   c-0.68-0.296-1.48-0.047-1.875,0.582c-0.294,0.47-0.865,0.999-1.174,1.011c-0.176-0.009-0.667-0.345-1.264-1.553   c-0.268-0.543-0.838-0.876-1.438-0.833c-0.604,0.038-1.125,0.434-1.324,1.005c-0.009,0.025-0.923,2.518-2.69,2.518   c-1.768,0-2.684-2.499-2.69-2.518c-0.198-0.571-0.72-0.967-1.324-1.005c-0.604-0.044-1.171,0.29-1.438,0.833   c-0.597,1.208-1.088,1.544-1.264,1.553c-0.287-0.003-0.879-0.541-1.169-1.003c-0.39-0.639-1.19-0.894-1.875-0.598   c-0.687,0.296-1.05,1.051-0.854,1.772c0.126,0.464,3.113,11.412,4.124,14.466c0.42,1.268,0.785,3.207,1.062,4.98h-2.3   c-1.84-4.432-5.597-8.556-6.667-9.676c-2.891-3.409-4.481-7.734-4.481-12.188c0-10.408,8.468-18.876,18.876-18.876   s18.876,8.468,18.876,18.876C84.248,65.251,82.664,69.576,79.787,72.97z M63.87,33.369V20.907c0-0.829,0.671-1.5,1.5-1.5   s1.5,0.671,1.5,1.5v12.461c0,0.829-0.671,1.5-1.5,1.5S63.87,34.197,63.87,33.369z M39.306,60.783c0,0.829-0.671,1.5-1.5,1.5H25.345   c-0.829,0-1.5-0.671-1.5-1.5s0.671-1.5,1.5-1.5h12.461C38.635,59.283,39.306,59.955,39.306,60.783z M106.602,60.783   c0,0.829-0.671,1.5-1.5,1.5H92.641c-0.829,0-1.5-0.671-1.5-1.5s0.671-1.5,1.5-1.5h12.461   C105.931,59.283,106.602,59.955,106.602,60.783z M34.975,34.901c-0.586-0.585-0.586-1.536,0-2.121c0.586-0.586,1.535-0.586,2.121,0   l8.812,8.812c0.586,0.585,0.586,1.536,0,2.121c-0.293,0.293-0.677,0.439-1.061,0.439s-0.768-0.146-1.061-0.439L34.975,34.901z    M84.842,43.712c-0.586-0.585-0.586-1.536,0-2.121l8.812-8.812c0.586-0.586,1.535-0.586,2.121,0c0.586,0.585,0.586,1.536,0,2.121   l-8.812,8.812c-0.293,0.293-0.677,0.439-1.061,0.439S85.135,44.005,84.842,43.712z"></path><path display="none" fill="url(#SvgjsLinearGradient4043)" d="M66,101.192c-19.699,0-35.725-16.026-35.725-35.725S46.301,29.743,66,29.743   s35.725,16.026,35.725,35.725S85.699,101.192,66,101.192z M66,32.743c-18.044,0-32.725,14.68-32.725,32.725   S47.956,98.192,66,98.192s32.725-14.68,32.725-32.725S84.044,32.743,66,32.743z M89.694,68.489c-3.053,0-5.537-2.484-5.537-5.537   c0-8.56-6.963-15.523-15.521-15.523c-3.054,0-5.538-2.483-5.538-5.536c0-3.054,2.484-5.538,5.538-5.538   c14.665,0,26.596,11.932,26.596,26.598C95.231,66.005,92.748,68.489,89.694,68.489z M68.636,39.354   c-1.399,0-2.538,1.139-2.538,2.538c0,1.398,1.139,2.536,2.538,2.536c10.213,0,18.521,8.31,18.521,18.523   c0,1.399,1.138,2.537,2.537,2.537s2.537-1.138,2.537-2.537C92.231,49.94,81.646,39.354,68.636,39.354z M56.201,48.29   c-3,0-5.439-2.44-5.439-5.44c0-3.001,2.44-5.442,5.439-5.442c3,0,5.441,2.441,5.441,5.441S59.202,48.29,56.201,48.29z    M56.201,40.407c-1.345,0-2.439,1.096-2.439,2.442c0,1.346,1.094,2.44,2.439,2.44c1.346,0,2.441-1.095,2.441-2.441   S57.547,40.407,56.201,40.407z"></path><g display="none"><path display="inline" fill="url(#SvgjsLinearGradient4043)" d="M44.9,34.044L44.9,34.044c2.474,0,4.895,1.543,6.216,2.864    c2.564,2.565,3.476,6.314,2.377,9.784l-0.021,0.067l-0.018,0.069c-0.494,1.86,0.039,3.86,1.389,5.217l0.058,0.058l0.061,0.055    l4.389,3.953l-2.909,2.625l-3.821-4.233l-0.052-0.058l-0.055-0.055c-1.025-1.023-2.387-1.587-3.835-1.587    c-0.348,0-0.693,0.033-1.033,0.099h-0.137l-0.426,0.129c-0.914,0.277-1.864,0.418-2.823,0.418c-2.586,0-5.018-1.007-6.847-2.836    c-1.378-1.377-2.389-3.26-2.705-5.035c-0.141-0.795-0.144-1.534-0.006-2.223l4.82,4.821l1.309,1.309l1.757-0.583l3.768-1.25    l1.428-0.474l0.474-1.429l1.25-3.767l0.583-1.757l-1.31-1.309l-4.795-4.794C44.281,34.07,44.586,34.044,44.9,34.044     M96.016,37.683c-0.219,3.837-1.825,7.499-4.609,10.283c-1.022,1.023-2.382,1.586-3.827,1.586c-1.446,0-2.805-0.563-3.828-1.586    c-2.11-2.111-2.11-5.544,0-7.655c1.021-1.02,2.377-1.581,3.822-1.581c0.468,0,0.933,0.06,1.384,0.178l0.115,0.04l0.233,0.045    c0.568,0.11,1.151,0.165,1.731,0.165C92.833,39.158,94.549,38.643,96.016,37.683 M74.851,50.47c0.097,0,0.148,0.051,0.165,0.067    l6.366,6.366c0.091,0.092,0.091,0.24,0.002,0.33l-0.438,0.438c-0.017,0.017-0.067,0.067-0.164,0.067    c-0.097,0-0.148-0.051-0.166-0.068l-6.367-6.366c-0.017-0.017-0.069-0.069-0.069-0.166s0.052-0.148,0.067-0.163l0.438-0.438    C74.703,50.521,74.753,50.47,74.851,50.47 M70.126,58.585c0.097,0,0.148,0.052,0.166,0.068l2.771,2.772    c0.092,0.092,0.093,0.241,0.002,0.332l-0.055,0.055l-0.051,0.057l-29.769,32.98c-0.022,0.017-0.043,0.034-0.065,0.052    l-0.217,0.176l-0.181,0.213c-0.083,0.098-0.165,0.198-0.257,0.29c-0.846,0.846-1.97,1.311-3.167,1.311    c-1.196,0-2.32-0.465-3.166-1.31c-0.846-0.846-1.312-1.97-1.312-3.166c0-1.196,0.466-2.32,1.312-3.167    c0.088-0.088,0.183-0.167,0.277-0.247l0.223-0.187l0.183-0.226c0.015-0.018,0.029-0.036,0.044-0.055L69.85,58.758l0.056-0.051    l0.053-0.053C69.977,58.637,70.029,58.585,70.126,58.585 M76.414,71.476l18.95,17.062l0.029,0.038l0.179,0.223l0.217,0.186    c0.102,0.087,0.207,0.174,0.296,0.264c1.745,1.746,1.746,4.587,0.002,6.332c-0.846,0.846-1.971,1.312-3.167,1.312    c-1.195,0-2.319-0.465-3.165-1.311c-0.091-0.091-0.172-0.187-0.252-0.282l-0.178-0.211l-0.213-0.175    c-0.023-0.019-0.047-0.038-0.072-0.058L72.176,76.168L76.414,71.476 M44.901,31.044c-2.005,0-4.026,0.691-5.785,2.45l7.545,7.543    l-1.25,3.767l-3.768,1.25l-7.543-7.545c-4.562,4.562-2.09,10.944,1.191,14.225c2.477,2.477,5.723,3.715,8.968,3.715    c1.246,0,2.491-0.182,3.694-0.547c0.006,0,0.012,0.006,0.018,0.006c0.001,0,0.003,0,0.004-0.001    c0.229-0.069,0.466-0.104,0.703-0.104c0.621,0,1.242,0.238,1.715,0.71l0,0c0,0,0,0,0,0l5.831,6.461l7.606-6.865l-6.862-6.18    c-0.631-0.634-0.83-1.525-0.616-2.331c1.385-4.373,0.352-9.343-3.115-12.811C51.249,32.798,48.095,31.044,44.901,31.044    L44.901,31.044z M97.588,31.848c-0.271,0-0.542,0.104-0.75,0.31c-0.086,0.087-0.142,0.187-0.191,0.29    c-0.023,0.052-0.037,0.105-0.061,0.155c-0.293,0.637-0.694,1.235-1.22,1.76c-1.196,1.197-2.764,1.794-4.331,1.794    c-0.39,0-0.78-0.037-1.164-0.111c-0.01-0.002-0.021-0.004-0.031-0.008c-0.741-0.206-1.504-0.309-2.268-0.309    c-2.15,0-4.301,0.818-5.942,2.459c-3.285,3.285-3.284,8.613,0,11.897c1.643,1.644,3.796,2.465,5.949,2.465    s4.306-0.822,5.949-2.465c4.665-4.664,6.36-11.158,5.118-17.167c-0.031-0.151-0.066-0.3-0.102-0.449    c-0.051-0.112-0.114-0.221-0.207-0.312C98.131,31.952,97.86,31.848,97.588,31.848L97.588,31.848z M74.851,47.47    c-0.828,0-1.655,0.315-2.286,0.946l-0.437,0.436c-1.264,1.264-1.264,3.311,0.001,4.574l6.366,6.365    c0.631,0.631,1.459,0.947,2.287,0.947c0.827,0,1.655-0.315,2.286-0.947l0.436-0.435c1.264-1.264,1.263-3.312,0-4.574l-6.366-6.366    C76.506,47.785,75.678,47.47,74.851,47.47L74.851,47.47z M70.126,55.585c-0.828,0-1.655,0.315-2.287,0.946L34.691,86.455    c-0.076,0.076-0.135,0.164-0.201,0.246c-0.162,0.136-0.321,0.274-0.473,0.426c-2.92,2.92-2.922,7.654,0,10.575    c1.46,1.459,3.374,2.188,5.287,2.188c1.914,0,3.827-0.729,5.288-2.189c0.151-0.151,0.289-0.312,0.425-0.472    c0.083-0.067,0.171-0.124,0.249-0.202l29.921-33.148c1.263-1.263,1.262-3.31,0-4.573l-2.773-2.773    C71.782,55.901,70.954,55.585,70.126,55.585L70.126,55.585z M76.194,67.241l-8.06,8.927l18.825,20.86    c0.077,0.077,0.165,0.135,0.247,0.202c0.135,0.16,0.273,0.318,0.427,0.472c1.459,1.459,3.373,2.189,5.286,2.189    s3.828-0.73,5.288-2.19c2.919-2.92,2.918-7.652-0.001-10.573c-0.152-0.151-0.312-0.29-0.472-0.426    c-0.066-0.083-0.125-0.171-0.201-0.246L76.194,67.241L76.194,67.241z"></path></g><path display="none" fill="url(#SvgjsLinearGradient4043)" d="M104.748,93.989c-0.13-0.325-0.295-0.641-0.49-0.939l-0.191-0.347l-0.052-0.095l-0.059-0.09   L79.342,54.529V43.196c0-1.494-0.314-2.939-0.936-4.297l-0.046-0.1l-0.052-0.096l-0.521-0.949l-2.844-5.182l-0.854-1.618   l-3.584-6.804c-1.076-2.537-2.883-3.096-4.023-3.173l-0.071-0.011h-0.226h-0.215l-0.077,0.01c-1.141,0.077-2.95,0.633-4.027,3.174   l-3.585,6.805l-0.853,1.617l-2.844,5.181l-0.521,0.95l-0.052,0.096l-0.046,0.1c-0.621,1.357-0.936,2.803-0.936,4.297v11.307   L28.398,92.518l-0.059,0.09l-0.052,0.095l-0.191,0.347c-0.195,0.299-0.36,0.614-0.49,0.939c-0.256,0.635-0.388,1.311-0.388,2   c0,2.855,2.244,5.199,5.062,5.359l0.052,0.01h0.257h0.716h0.001h2.44h15.617v1.608h1.549c-0.089,0.823-0.128,1.712-0.111,2.671   l0.002,0.135c0,2.729,2.369,4.146,7.041,4.215h0.044h0.044c2.031-0.03,3.6-0.332,4.754-0.869v6.859c0,0.829,0.672,1.5,1.5,1.5   s1.5-0.671,1.5-1.5v-6.859c1.154,0.538,2.724,0.839,4.756,0.868l0.043,0.001l0.043-0.001c4.673-0.067,7.042-1.485,7.042-4.214   l0.001-0.102c0.017-0.973-0.021-1.871-0.112-2.704h1.551v-1.608h15.6h2.44h0.001h0.716h0.257l0.052-0.01   c2.817-0.16,5.062-2.504,5.062-5.359C105.136,95.299,105.004,94.624,104.748,93.989z M53.03,88.864   c-1.06,2.04-1.667,4.351-1.667,6.803v2.691H35.746h-3.155c-0.001,0-0.002,0-0.002,0c-0.001,0-0.003,0-0.004,0   c-1.307-0.002-2.366-1.062-2.366-2.369c0-0.313,0.062-0.611,0.173-0.885c0.069-0.174,0.16-0.336,0.267-0.486l0.258-0.469   l22.114-34.13V88.864z M64.564,25.464l0.007-0.004c0.331-0.849,0.766-1.481,1.604-1.493c0,0,0.007,0,0.01,0   c0.004,0,0.011,0,0.011,0c0.839,0.012,1.273,0.645,1.604,1.493l0.007,0.004l2.208,4.192h-7.659L64.564,25.464z M56.03,43.196   c0-1.088,0.239-2.121,0.664-3.05l0.521-0.949l2.855-5.202l0.705-1.338h10.821l0.705,1.338l2.855,5.202l0.521,0.949   c0.425,0.929,0.664,1.962,0.664,3.05v5.948H59.03h-2.528H56.03V43.196z M56.03,55.389v-3.245h3h17.312v7.519H59.03h-3V55.389z    M56.03,62.663h3h17.312v7.518H59.03h-3V62.663z M56.03,73.18h3h17.312v11.718c-2.622-2.477-6.133-4.021-10.005-4.062l-0.017-0.002   h-0.126h-0.017h-0.108h-0.008c-2.553,0.023-4.942,0.711-7.031,1.877c-1.088,0.607-2.1,1.338-3,2.188V73.18z M63.964,105.772   c0,1.006-2.551,1.192-4.076,1.215l0,0c-1.526-0.022-4.085-0.207-4.085-1.215c0-0.046-0.001-0.109-0.002-0.186   c-0.029-1.702,0.137-3.107,0.48-4.229c0.272-0.89,0.654-1.604,1.159-2.117c0.445-0.454,0.981-0.742,1.59-0.885   c0.269-0.062,0.547-0.104,0.845-0.105v-0.002c0.004,0,0.007,0.001,0.011,0.001c0.002,0,0.005-0.001,0.006-0.001v0.001   c0.974,0.005,1.793,0.337,2.436,0.991c1.141,1.16,1.691,3.295,1.64,6.346C63.965,105.664,63.964,105.726,63.964,105.772z    M76.569,105.772c0,1.008-2.559,1.192-4.085,1.215l0,0c-1.525-0.022-4.076-0.209-4.076-1.215c0-0.046-0.001-0.108-0.003-0.186   c-0.052-3.051,0.499-5.186,1.64-6.346c0.643-0.654,1.462-0.986,2.436-0.991v-0.001c0.001,0,0.004,0.001,0.006,0.001   c0.004,0,0.007-0.001,0.011-0.001v0.002c0.973,0.004,1.793,0.336,2.435,0.99c1.141,1.16,1.691,3.295,1.64,6.346   C76.57,105.663,76.569,105.726,76.569,105.772z M78.009,98.353c-0.278-0.443-0.584-0.856-0.938-1.216   c-1.164-1.187-2.679-1.836-4.387-1.885l-0.032-0.004h-0.155H72.48H72.39l-0.021,0.002c-1.748,0.035-3.284,0.687-4.464,1.887   c-0.078,0.08-0.145,0.172-0.22,0.256v-9.249c0-0.829-0.672-1.5-1.5-1.5s-1.5,0.671-1.5,1.5v9.249   c-0.074-0.084-0.141-0.176-0.219-0.256c-1.182-1.203-2.722-1.854-4.458-1.887l-0.021-0.001l-0.096-0.001h-0.001h-0.017h-0.153   l-0.027,0.004c-0.229,0.006-0.443,0.051-0.664,0.079c-1.116,0.141-2.131,0.537-3,1.192c-0.253,0.189-0.504,0.384-0.731,0.615   c-0.354,0.359-0.658,0.771-0.936,1.213v-2.686c0-2.207,0.615-4.265,1.667-6.033c0.777-1.307,1.797-2.447,3-3.367   c1.986-1.516,4.458-2.428,7.147-2.432l0,0c0.003,0,0.006,0,0.008,0c0.003,0,0.006,0,0.009,0l0,0   c6.524,0.01,11.814,5.303,11.814,11.832V98.353z M99.77,98.358c-0.001,0-0.003,0-0.004,0c0,0-0.001,0-0.002,0h-3.155h-15.6v-2.691   c0-2.453-0.607-4.764-1.667-6.805V60.046l22.097,34.103l0.258,0.469c0.106,0.15,0.197,0.312,0.267,0.486   c0.11,0.273,0.173,0.571,0.173,0.885C102.136,97.295,101.076,98.356,99.77,98.358z M67.687,36.057L67.687,36.057l-1.5-0.064   l-1.5,0.064l0,0c-2.356,0.24-4.112,1.062-5.214,2.469c-1.71,2.186-1.073,4.864-1.045,4.977l0.282,1.141h5.977h3h5.977l0.282-1.141   c0.028-0.112,0.665-2.791-1.045-4.977C71.799,37.12,70.043,36.297,67.687,36.057z M64.687,41.643H61.32   c0.059-0.416,0.206-0.881,0.53-1.287c0.537-0.672,1.505-1.107,2.836-1.287V41.643z M67.687,41.643v-2.574   c1.331,0.18,2.299,0.615,2.836,1.287c0.324,0.406,0.472,0.871,0.53,1.287H67.687z"></path><path d="M39.632,69.383l-4.209-3.828c-0.268-0.244-0.649-0.324-0.992-0.208c-0.344,0.116-0.598,0.409-0.664,0.766l-0.958,5.167   c-0.047,0.256,0.007,0.521,0.151,0.736c0.596,0.893,2.145,2.969,3.672,2.969c0.187,0,0.368-0.029,0.54-0.086   c1.492-0.498,2.421-3.319,2.751-4.51C40.024,70.026,39.912,69.637,39.632,69.383z M36.586,72.967   c-0.362-0.135-1.122-0.9-1.734-1.735l0.555-2.989l2.412,2.194C37.435,71.6,36.894,72.712,36.586,72.967z M86.38,66.115   c0.997,3.16,1.552,6.515,1.552,10.001c0,18.424-14.988,33.412-33.412,33.412S21.108,94.54,21.108,76.116   S36.096,42.704,54.52,42.704c3.485,0,6.84,0.555,10,1.551l2.511,2.512c0.03,0.03,0.062,0.061,0.093,0.09l-0.347,0.348l-0.585,0.586   c-0.065,0.064-0.114,0.125-0.17,0.187c-3.551-1.458-7.432-2.272-11.502-2.272c-2.609,0-5.144,0.331-7.562,0.953   c-2.554,2.507-6.998,7.566-6.998,10.92c0,0.881,0.181,2.405,1.389,2.711c0.998,0.249,2.329-0.385,2.856-1.359   c1.289-2.395,3.816-2.33,5.031-2.299c0.199,0.006,0.369,0.016,0.491,0.004c0.348-0.128,0.731-0.078,1.031,0.141   c0.388,0.283,0.871,0.637,0.293,4.709c-0.019,0.133-0.064,0.26-0.133,0.374l-2.68,4.463c-0.078,0.13-0.186,0.241-0.313,0.324   c-0.696,0.451-3.028,1.849-4.686,1.47c0.067,0.207,0.255,0.513,0.677,0.794c0.589,0.393,0.955,0.962,1.057,1.646   c0.234,1.574-1.055,3.318-1.363,3.708l-1.64,2.729c0.388,1.217,1.153,4.074,0.373,5.636c-0.084,0.21,0.252,1.176,1.146,1.724   c0.827,0.506,1.625,0.324,2.374-0.533c2.196-2.511,1.222-4.398,1.211-4.417c-0.147-0.274-0.159-0.603-0.03-0.886   c0.599-1.325,2.399-3.567,4.913-2.574c1.391,0.55,3.132,0.738,4.147,0.804c0.084-0.788,0.059-1.654-0.206-1.976   c-0.029-0.036-0.058-0.086-0.258-0.08c-1.062,0.031-1.487-0.497-1.642-0.816c-0.121-0.251-0.332-0.92,0.333-1.707   c0.577-0.684,1.824-1.408,3.587-1.678c0.221,0.486,0.518,0.938,0.906,1.325c0.218,0.218,0.455,0.409,0.707,0.575   c-1.244-0.018-2.209,0.234-2.844,0.518c0.289,0.137,0.543,0.336,0.756,0.594c1.127,1.372,0.596,3.992,0.479,4.504   c-0.104,0.453-0.509,0.775-0.975,0.775c-0.133,0-3.28-0.012-5.726-0.977c-1.038-0.408-1.825,0.62-2.17,1.191   c0.329,1.038,0.683,3.436-1.684,6.142c-0.948,1.083-1.991,1.493-2.959,1.493c-0.788,0-1.525-0.271-2.122-0.673   c-1.385-0.931-2.441-2.81-1.734-4.223c0.392-0.784-0.139-3.165-0.621-4.527c-0.1-0.282-0.068-0.593,0.085-0.849l1.912-3.184   c0.025-0.041,0.054-0.081,0.084-0.119c0.446-0.548,1.067-1.63,0.98-2.205c-0.016-0.104-0.052-0.186-0.188-0.276   c-1.544-1.03-1.872-2.559-1.398-3.537c0.402-0.831,1.312-1.185,2.261-0.874c0.489,0.152,1.909-0.422,2.978-1.074l2.451-4.084   c0.11-0.822,0.198-1.75,0.217-2.369c-0.042-0.002-0.086-0.003-0.131-0.004c-1.363-0.034-2.565,0.033-3.219,1.248   c-0.969,1.795-3.207,2.827-5.106,2.349c-0.872-0.22-2.899-1.114-2.899-4.649c0-3.107,2.656-6.865,5.012-9.59   c-11.058,4.557-18.863,15.446-18.863,28.129c0,14.903,10.778,27.328,24.947,29.911c-0.274-0.772-0.368-1.603-0.451-2.371   c-0.087-0.802-0.176-1.632-0.443-2.389c-1.054-2.987-0.903-6.774-0.838-7.81c-1.414-3.219-0.674-3.933-0.391-4.205   c0.268-0.258,0.86-0.615,1.854-0.121c0.656,0.33,2.521-1.188,3.732-2.773c0.021-0.027,0.043-0.055,0.066-0.08   c0.775-0.822,3.426-3.525,4.989-3.748c0.464-0.127,1.667-1.702,2.512-3.305c0.144-0.271,0.404-0.463,0.707-0.518   c0.302-0.055,0.614,0.033,0.843,0.237c1.345,1.196,5.37,3.983,7.827,2.561c1.408-0.815,3.066-2.091,4.556-3.329   c0.038,0.002,0.074,0.012,0.112,0.012c0.501,0,0.996-0.084,1.472-0.248c1.495-0.519,2.582-1.752,2.918-3.271l0.012-0.033   l0.048-0.283l0.011-0.068l0.009-0.069c0.015-0.12,0.02-0.245,0.031-0.366l0.793,0.687c0.212,0.184,0.337,0.448,0.345,0.729   c0.007,0.28-0.104,0.551-0.307,0.746c-0.214,0.207-5.297,5.084-8.997,7.227c-3.239,1.876-7.36-0.66-9.202-2.03   c-0.823,1.358-2.12,3.119-3.406,3.303c-0.525,0.078-2.286,1.524-3.78,3.104c-0.605,0.785-3.135,3.873-5.46,3.535   c0.138,0.497,0.372,1.144,0.633,1.718c0.071,0.156,0.101,0.328,0.086,0.5c-0.003,0.041-0.349,4.23,0.713,7.236   c0.344,0.976,0.451,1.965,0.545,2.839c0.151,1.396,0.263,2.371,1.098,2.951c0.933,0.087,1.876,0.136,2.83,0.136   c16.77,0,30.412-13.643,30.412-30.412c0-1.562-0.119-3.098-0.348-4.598l-5.889,1.572c0.024-0.417,0.037-0.842,0.037-1.284   c0-0.257-0.029-0.524-0.04-0.786l5.517-1.473c-0.241-1.091-0.542-2.159-0.897-3.203h-2.847c-0.369,0.279-1.067,0.736-2.208,1.271   c-0.082-0.379-0.162-0.76-0.261-1.121c1.833-0.025,3.553-0.751,4.852-2.051l0.584-0.584l0.348-0.348   c0.03,0.032,0.062,0.063,0.093,0.095L86.38,66.115z M110.243,70.126L93.796,53.68c-0.562-0.562-1.559-0.562-2.121,0l-1.776,1.776   l-1.152-1.152l5.901-5.9c0.755-0.757,1.171-1.761,1.17-2.829c-0.001-1.069-0.418-2.074-1.174-2.828l-6.755-6.756   c-0.755-0.755-1.76-1.172-2.828-1.172s-2.072,0.416-2.83,1.172l-5.898,5.899l-1.153-1.153l1.776-1.775   c0.586-0.586,0.586-1.536,0-2.121L60.51,20.394c-0.562-0.562-1.559-0.562-2.121,0l-5.684,5.684   c-0.281,0.281-0.439,0.663-0.439,1.061s0.158,0.779,0.439,1.061l16.446,16.446c0.281,0.281,0.663,0.439,1.061,0.439   s0.779-0.158,1.061-0.439l1.785-1.787l1.153,1.153l-3.113,3.114l-2.2,2.199l-0.584,0.585c-0.121,0.12-0.218,0.258-0.321,0.391   c-0.543,0.698-0.852,1.541-0.852,2.439c0,0.008,0.002,0.015,0.002,0.022c0.006,1.061,0.42,2.056,1.17,2.806l2.317,2.317   l-0.968,0.967c-1.492-1.252-3.171-2.213-4.967-2.879c-0.639-0.238-1.292-0.436-1.958-0.594c-1.283-0.305-2.606-0.48-3.96-0.48   c-0.668,0-1.342,0.039-2.004,0.117c-0.571,0.068-1.054,0.455-1.242,0.998s-0.05,1.146,0.356,1.553l7.529,7.529l-2.472,2.473   c-0.586,0.586-0.586,1.535,0,2.121c0.293,0.293,0.677,0.439,1.061,0.439s0.768-0.146,1.061-0.439l2.147-2.148l0.324-0.324   l1.817,1.817l5.714,5.714c0.286,0.286,0.669,0.439,1.061,0.439c0.165,0,0.331-0.027,0.492-0.083   c0.537-0.187,0.92-0.661,0.992-1.226c0.001-0.006,0.004-0.01,0.005-0.016c0.081-0.688,0.114-1.373,0.113-2.053   c-0.001-1.081-0.119-2.145-0.32-3.189c-0.131-0.678-0.297-1.346-0.509-2c-0.409-1.266-0.959-2.481-1.659-3.621   c-0.378-0.617-0.796-1.211-1.256-1.78c-0.066-0.083-0.145-0.157-0.213-0.239l0.504-0.504l0.472-0.471l1.406,1.406l0.91,0.911   c0.755,0.755,1.76,1.172,2.829,1.172s2.074-0.417,2.829-1.172l0.585-0.585l2.2-2.2l3.114-3.113l1.152,1.152l-1.785,1.786   c-0.586,0.586-0.586,1.535,0,2.121l16.446,16.446c0.281,0.281,0.663,0.439,1.061,0.439s0.779-0.158,1.061-0.439l5.683-5.684   C110.829,71.662,110.829,70.711,110.243,70.126z M71.999,39.676l-0.002,0.002l-1.784,1.784L55.887,27.138l3.562-3.562   l14.324,14.325L71.999,39.676z M71.999,67.379c0.293,0.869,0.511,1.766,0.628,2.684l-5.43-5.43l-5.719-5.719l-0.901-0.902   c0.358,0.046,0.712,0.107,1.063,0.181c0.659,0.136,1.302,0.325,1.93,0.554c1.889,0.688,3.623,1.775,5.084,3.236   c0.619,0.618,1.164,1.289,1.648,1.996C71.026,65.036,71.593,66.178,71.999,67.379z M85.568,53.24l-0.007,0.007l-3.699,3.699   l-2.15,2.15l-1.107,1.107c-0.377,0.377-1.036,0.377-1.415-0.001l-3.068-3.069l-0.308-0.307c0-0.001-0.001-0.002-0.001-0.002   s-0.001,0-0.001-0.001l-3.258-3.258l-0.119-0.119c-0.029-0.03-0.043-0.069-0.068-0.103c-0.136-0.174-0.225-0.38-0.225-0.605   c0-0.268,0.104-0.518,0.293-0.707l0.727-0.727l0.38-0.381l2.149-2.149l10.661-10.661c0.189-0.189,0.441-0.295,0.71-0.295   c0.267,0,0.518,0.104,0.707,0.293l6.756,6.758c0.189,0.188,0.294,0.439,0.294,0.707c0,0.267-0.104,0.518-0.292,0.707L85.568,53.24z    M103.5,74.749L89.174,60.424l3.562-3.562l14.325,14.325L103.5,74.749z"></path><path display="none" fill="url(#SvgjsLinearGradient4043)" stroke="url(#SvgjsLinearGradient4043)" stroke-width="3" stroke-linecap="round" stroke-linejoin="round" stroke-miterlimit="10" d="   M65.895,31.479c-18.899,0-34.275,15.375-34.275,34.273c0,18.896,15.376,34.27,34.275,34.27c18.9,0,34.276-15.373,34.276-34.27   C100.171,46.854,84.795,31.479,65.895,31.479z M94.048,62.77h-8.422c-1.049-9.772-5.596-17.979-9.505-23.408   C85.803,43.126,92.921,52.066,94.048,62.77z M62.912,62.77H52.876c1.231-9.59,6.406-18.465,10.01-22.996L62.912,62.77z    M62.912,68.735v23.249c-6.35-7.072-9.797-15.378-10.256-23.249H62.912z M68.878,68.735h10.959   c-0.478,8.156-4.159,15.955-10.959,23.249V68.735z M68.878,62.77V39.773c3.591,4.314,9.429,12.725,10.74,22.996H68.878z    M56.63,39.008c-3.967,5.423-8.69,13.771-9.764,23.762h-9.124C38.906,51.715,46.461,42.541,56.63,39.008z M37.742,68.735h8.946   c0.399,8.279,3.527,16.161,9.321,23.536C46.152,88.586,38.882,79.562,37.742,68.735z M76.807,91.867   c5.592-7.26,8.605-15.006,8.998-23.132h8.243C92.946,79.184,86.14,87.953,76.807,91.867z"></path><path display="none" fill="url(#SvgjsLinearGradient4043)" d="M68.729,94.724c0,1.318-1.069,2.388-2.388,2.388h-0.127c-1.319,0-2.424-1.07-2.424-2.388   c0-1.32,1.034-2.388,2.353-2.388h0.198C67.66,92.336,68.729,93.404,68.729,94.724z M52.076,86.459   c-0.467-0.471-1.082-0.707-1.696-0.707c-0.608,0-1.215,0.23-1.681,0.692c-0.938,0.928-0.944,2.442-0.014,3.377l0.161,0.161   c0.465,0.459,1.069,0.686,1.673,0.686c0.618,0,1.236-0.239,1.704-0.714c0.923-0.941,0.913-2.452-0.029-3.376L52.076,86.459z    M43.879,69.978c-1.319,0-2.388,1.092-2.388,2.411v0.17c0.01,1.312,1.078,2.37,2.388,2.37c0.006,0,0.013,0,0.018,0   c1.32-0.011,2.381-1.088,2.371-2.407l-0.001-0.179C46.267,71.025,45.198,69.978,43.879,69.978z M50.306,59.102   c0.622,0,1.243-0.241,1.71-0.722l0.11-0.11c0.936-0.93,0.942-2.441,0.014-3.377c-0.467-0.471-1.081-0.707-1.695-0.707   c-0.608,0-1.216,0.231-1.683,0.693l-0.168,0.167c-0.92,0.945-0.902,2.457,0.042,3.377C49.103,58.876,49.704,59.102,50.306,59.102z    M82.089,85.711c-0.615,0-1.229,0.235-1.696,0.707L80.26,86.55c-0.933,0.934-0.933,2.446,0,3.377   c0.466,0.466,1.079,0.701,1.688,0.701c0.611,0,1.223-0.234,1.689-0.701l0.146-0.146c0.927-0.938,0.92-2.449-0.014-3.377   C83.305,85.941,82.696,85.711,82.089,85.711z M80.325,58.294c0.466,0.467,1.078,0.7,1.688,0.7c0.612,0,1.224-0.233,1.69-0.7   c0.932-0.932,0.932-2.446,0-3.378l-0.162-0.158c-0.465-0.453-1.067-0.679-1.668-0.679c-0.621,0-1.241,0.241-1.709,0.721   c-0.921,0.944-0.902,2.457,0.042,3.378L80.325,58.294z M88.547,74.87c1.318,0,2.388-1.069,2.388-2.388l-0.001-0.303   c-0.007-1.307-1.073-2.375-2.363-2.375c-0.013,0-0.026,0-0.04,0c-1.318,0.008-2.381,1.084-2.374,2.402l0.003,0.275   C86.161,73.801,87.229,74.87,88.547,74.87z M96.896,48.823l-1.162,1.162c4.739,6.229,7.559,13.992,7.559,22.404   c0,20.447-16.634,37.08-37.079,37.08c-20.446,0-37.082-16.633-37.082-37.08c0-17.671,12.432-32.486,29.005-36.184v-2.458h-0.749   c-1.211,0-2.193-0.981-2.193-2.192v-8.396c0-1.211,0.981-2.191,2.193-2.191h17.648c1.212,0,2.193,0.98,2.193,2.191v8.396   c0,1.21-0.981,2.192-2.193,2.192h-0.749v2.458c5.25,1.171,10.084,3.452,14.238,6.593l1.172-1.172l-0.333-0.333   c-0.54-0.541-0.54-1.415,0-1.954l5.541-5.541c0.27-0.269,0.624-0.403,0.977-0.403c0.354,0,0.708,0.135,0.977,0.404l7.866,7.866   c0.54,0.539,0.54,1.414,0,1.953l-5.542,5.541c-0.27,0.27-0.623,0.405-0.977,0.405c-0.354,0-0.708-0.135-0.977-0.406L96.896,48.823z    M92.679,40.268l5.577,5.577l3.203-3.204l-5.576-5.577L92.679,40.268z M58.196,23.967v6.649H74.23v-6.649H58.196z M93.613,47.864   l1.162-1.162l-2.956-2.955l-1.172,1.171c-0.582,0.582-1.35,0.879-2.122,0.879c-0.634,0-1.27-0.2-1.809-0.607   c-3.907-2.955-8.308-4.993-13.082-6.058c-1.372-0.306-2.347-1.523-2.347-2.928v-2.458h-10.15v2.458   c0,1.405-0.975,2.622-2.347,2.928C43.344,42.58,32.132,56.565,32.132,72.389c0,18.792,15.289,34.08,34.082,34.08   c18.792,0,34.079-15.288,34.079-34.08c0-7.495-2.402-14.614-6.947-20.587C92.438,50.607,92.551,48.925,93.613,47.864z    M96.741,72.389c0,16.833-13.694,30.527-30.527,30.527c-16.833,0-30.528-13.694-30.528-30.527   c0-16.833,13.695-30.527,30.528-30.527C83.046,41.862,96.741,55.556,96.741,72.389z M93.741,72.389   c0-15.178-12.349-27.527-27.527-27.527c-15.179,0-27.528,12.349-27.528,27.527c0,15.179,12.349,27.527,27.528,27.527   C81.392,99.916,93.741,87.568,93.741,72.389z M71.046,70.798c0.105,0.408,0.168,0.832,0.168,1.271c0,2.762-2.239,5.001-5.001,5.001   c-2.764,0-5.003-2.239-5.003-5.001c0-0.439,0.062-0.864,0.17-1.271l2.128-19.491c0.001-1.494,1.21-2.705,2.705-2.705   c1.492,0,2.704,1.211,2.704,2.705L71.046,70.798z M68.215,72.069c0-0.161-0.024-0.331-0.073-0.52   c-0.036-0.14-0.062-0.282-0.078-0.426L66.213,54.18l-1.85,16.944c-0.017,0.149-0.044,0.297-0.083,0.442   c-0.047,0.179-0.07,0.344-0.07,0.504c0,1.104,0.898,2.001,2.003,2.001C67.317,74.07,68.215,73.173,68.215,72.069z"></path><path display="none" fill="url(#SvgjsLinearGradient4043)" d="M79.715,31.641c0.295,0,0.536,0.24,0.536,0.535c0,0.214-0.139,0.353-0.221,0.417   c-0.227,0.175-0.423,0.378-0.587,0.601l-4.229,4.9h-9.038h-9.039l-4.219-4.889c-0.166-0.228-0.366-0.435-0.598-0.613   c-0.1-0.077-0.219-0.211-0.219-0.416c0-0.295,0.24-0.535,0.534-0.535h13.54H79.715 M74.117,46.311c2.111,0,4.044,1.077,5.171,2.881   c0.014,0.023,0.027,0.046,0.041,0.069c0.181,0.299,0.337,0.615,0.464,0.939c0.031,0.08,0.066,0.159,0.104,0.236l14.765,29.84   c0.067,0.181,0.151,0.357,0.254,0.525c1.204,1.974,1.84,4.225,1.84,6.51c0,6.919-5.629,12.549-12.549,12.549h-18.03h-18.03   c-6.919,0-12.549-5.629-12.549-12.549c0-2.284,0.636-4.536,1.839-6.51c0.101-0.167,0.185-0.341,0.25-0.521l14.767-29.844   c0.038-0.077,0.073-0.156,0.104-0.236c0.127-0.324,0.283-0.639,0.463-0.935c0.011-0.019,0.022-0.037,0.033-0.055   c0.003-0.006,0.007-0.011,0.01-0.017c1.127-1.805,3.06-2.883,5.171-2.883h7.941H74.117 M53.316,67.202   c-1.096,0.139-2.04,0.875-2.433,1.929l-1.334,3.583c-0.343,0.921-0.213,1.952,0.348,2.759c0.157,0.225,0.341,0.425,0.548,0.597   l-0.896,2.404c-0.343,0.921-0.213,1.951,0.348,2.758s1.481,1.289,2.464,1.289h0.982c1.94,6.172,6.679,9.413,13.838,9.413   c4.79,0,7.321-1.291,8.187-1.845c0.861-0.551,1.381-1.503,1.381-2.526v-5.514c0-1.193-0.708-2.273-1.802-2.75   c-0.385-0.168-0.793-0.25-1.198-0.25c-0.641,0-1.273,0.205-1.799,0.599l0.992-2.662c0.137-0.369,0.199-0.755,0.187-1.137   c0.283-0.292,0.509-0.644,0.657-1.041l1.334-3.583c0.147-0.396,0.207-0.811,0.184-1.22c0.888-0.538,1.445-1.506,1.445-2.566v-5.515   c0-0.985-0.484-1.908-1.295-2.468c-1.363-0.942-4.348-2.042-8.273-2.042C60.079,57.414,55.328,60.785,53.316,67.202 M79.715,28.641   H66.177h-13.54c-1.952,0-3.534,1.583-3.534,3.535c0,1.143,0.55,2.148,1.392,2.795l-0.004,0.011l4.567,5.293l0.009,0.004   c0.467,0.499,1.126,0.815,1.863,0.815h9.247h9.247c0.736,0,1.396-0.316,1.862-0.815l0.009-0.004l4.567-5.293l-0.004-0.011   c0.841-0.646,1.393-1.652,1.393-2.795C83.251,30.224,81.668,28.641,79.715,28.641L79.715,28.641z M74.117,43.311h-7.939h-7.941   c-3.259,0-6.108,1.72-7.716,4.295l-0.016,0.01l-0.046,0.092c-0.27,0.443-0.501,0.91-0.692,1.398L34.865,79.221l0.011,0.019   c-1.435,2.354-2.277,5.111-2.277,8.071c0,8.587,6.961,15.549,15.549,15.549h18.03h18.03c8.587,0,15.549-6.962,15.549-15.549   c0-2.96-0.843-5.717-2.278-8.071l0.01-0.019L82.586,49.105c-0.191-0.488-0.423-0.955-0.691-1.398l-0.046-0.092l-0.015-0.01   C80.227,45.03,77.376,43.311,74.117,43.311L74.117,43.311z M52.361,73.761l1.334-3.583h1.968c1.088-5.725,4.318-9.764,11.519-9.764   c3.267,0,5.655,0.879,6.568,1.51v5.515c-0.913-0.913-2.739-1.791-5.55-1.791c-3.582,0-5.373,1.687-5.936,4.53h10.045l-1.334,3.583   h-9.167c0,0.245-0.035,0.632-0.035,0.983c0,0.422,0.035,0.878,0.07,1.194h8.288l-1.334,3.582h-6.427   c0.561,2.774,2.423,4.25,5.829,4.25c2.564,0,4.566-0.808,5.55-1.722v5.514c-0.878,0.562-3.056,1.371-6.568,1.371   c-6.567,0-10.36-3.092-11.484-9.413h-3.336l1.334-3.582h1.651c-0.035-0.316-0.035-0.702-0.035-1.159c0-0.387,0-0.703,0.035-1.019   H52.361L52.361,73.761z M55.346,73.761h0.005H55.346z"></path><path display="none" d="M111.991,65.396c-0.005-0.067-0.013-0.136-0.027-0.202c-0.005-0.024-0.012-0.048-0.019-0.072   c-0.019-0.072-0.042-0.144-0.072-0.213c-0.007-0.018-0.016-0.033-0.023-0.05c-0.035-0.074-0.076-0.146-0.125-0.216   c-0.01-0.014-0.02-0.025-0.029-0.039c-0.05-0.066-0.104-0.127-0.162-0.183c-0.017-0.017-0.035-0.032-0.053-0.048   c-0.033-0.028-0.061-0.06-0.096-0.086c-0.224-0.162-3.047-2.15-10-4.107C98.701,43.065,83.856,29.931,66,29.931   s-32.7,13.135-35.384,30.25c-6.952,1.957-9.776,3.945-10,4.107c-0.021,0.016-0.036,0.035-0.057,0.051   c-0.041,0.033-0.081,0.068-0.117,0.105c-0.035,0.035-0.068,0.072-0.101,0.112c-0.031,0.038-0.061,0.077-0.087,0.116   c-0.028,0.043-0.053,0.086-0.076,0.129c-0.023,0.046-0.047,0.092-0.065,0.139c-0.016,0.039-0.028,0.078-0.04,0.118   c-0.018,0.056-0.033,0.11-0.043,0.167c-0.007,0.033-0.01,0.068-0.014,0.102c-0.007,0.062-0.013,0.126-0.012,0.189   c0,0.029,0.003,0.059,0.005,0.088c0.005,0.068,0.013,0.136,0.027,0.203c0.005,0.023,0.012,0.047,0.018,0.07   c0.02,0.072,0.043,0.145,0.073,0.215c0.007,0.016,0.016,0.031,0.022,0.048c0.036,0.075,0.077,0.147,0.127,0.218   c0.008,0.012,0.017,0.021,0.024,0.033c0.063,0.085,0.135,0.161,0.212,0.229c0.013,0.012,0.024,0.023,0.038,0.035   c0.022,0.018,0.041,0.039,0.064,0.057c0.223,0.163,3.029,2.137,9.927,4.088c2.462,17.367,17.42,30.77,35.457,30.77   c14.338,0,26.729-8.471,32.448-20.67c3.897-1.633,6.643-5.485,6.643-9.969c0-0.424-0.031-0.841-0.079-1.252   c4.33-1.525,6.193-2.836,6.373-2.967c0.015-0.01,0.025-0.023,0.039-0.035c0.035-0.027,0.065-0.057,0.097-0.086   c0.052-0.049,0.102-0.101,0.147-0.158c0.027-0.034,0.055-0.068,0.078-0.105c0.028-0.041,0.053-0.085,0.076-0.129   c0.023-0.045,0.047-0.091,0.065-0.139c0.016-0.038,0.028-0.077,0.04-0.117c0.018-0.055,0.033-0.111,0.043-0.168   c0.007-0.033,0.01-0.066,0.014-0.101c0.008-0.062,0.013-0.126,0.012-0.188C111.996,65.455,111.993,65.426,111.991,65.396z    M66,32.931c15.911,0,29.209,11.381,32.191,26.43c0.104,0.531,0.197,1.067,0.276,1.607c-1.287-0.543-2.7-0.844-4.183-0.844   c-1.425,0-2.782,0.285-4.029,0.787c-3.967,1.602-6.776,5.486-6.776,10.02c0,0.004,0.001,0.008,0.001,0.012   c-4.97,0.495-10.754,0.81-17.479,0.81c0,0,0,0-0.001,0c-15.335,0-25.847-1.619-32.703-3.35c-0.07-0.876-0.116-1.759-0.116-2.651   c0-1.066,0.056-2.121,0.155-3.162c0.105-1.093,0.265-2.17,0.475-3.229C36.792,44.312,50.089,32.931,66,32.931z M24.669,65.501   c1.265-0.578,3.103-1.307,5.594-2.061c-0.05,0.764-0.083,1.533-0.083,2.311c0,0.604,0.016,1.203,0.046,1.799   C27.755,66.8,25.928,66.075,24.669,65.501z M66,98.569c-16.093,0-29.507-11.645-32.283-26.949   C40.814,73.294,51.23,74.752,66,74.752c0.001,0,0.001,0,0.001,0c6.886,0,12.811-0.32,17.909-0.827   c1.303,4.504,5.456,7.812,10.375,7.812c0.127,0,0.249-0.015,0.375-0.019C89.042,91.761,78.303,98.569,66,98.569z M102.09,70.931   c0,1.842-0.645,3.533-1.716,4.87c-1.036,1.293-2.475,2.244-4.123,2.675c-0.63,0.164-1.286,0.261-1.967,0.261   c-3.369,0-6.238-2.149-7.329-5.147c-0.303-0.83-0.477-1.724-0.477-2.658c0-0.107,0.012-0.213,0.017-0.32   c0.169-4.154,3.594-7.486,7.789-7.486c1.679,0,3.23,0.538,4.505,1.443c1.11,0.789,2.003,1.858,2.579,3.105   c0.126,0.273,0.24,0.553,0.334,0.841c0.218,0.667,0.343,1.374,0.372,2.106C102.079,70.724,102.09,70.825,102.09,70.931z    M104.244,66.739c-0.498-1.178-1.207-2.243-2.066-3.166c2.269,0.707,3.963,1.383,5.153,1.928   C106.535,65.864,105.511,66.288,104.244,66.739z"></path></g></g><g id="SvgjsG4036" featureKey="textGroupContainer" transform="matrix(1,0,0,1,355,0)" fill="#303841"><rect xmlns="http://www.w3.org/2000/svg" y="0" height="1" width="1" opacity="0"></rect><rect xmlns="http://www.w3.org/2000/svg" y="0" x="-235" width="3" height="126"></rect></g><g id="SvgjsG4037" featureKey="YhTCwJ-0" transform="matrix(2.163565677461633,0,0,2.163565677461633,134.19212391246663,21.441803373060825)" fill="#303841"><path d="M10.66 5.84 l0 1.56 l-7.22 0 l0 4.44 l6.74 0 l0 1.56 l-6.74 0 l0 5.04 l7.58 0 l0 1.56 l-9.26 0 l0 -14.16 l8.9 0 z M13.879999999999999 10.64 l2.92 7.34 l0.04 0 l2.78 -7.34 l1.68 0 l-3.7 9.36 l-1.72 0 l-3.82 -9.36 l1.82 0 z M27.240000000000002 10.4 q2.08 0 3.25 1.31 t1.19 3.71 l0 0.38 l-7.56 0 q0.12 1.3 0.98 2.14 t2.1 0.86 q1.9 0 2.96 -1.42 l1.18 0.92 q-0.74 0.96 -1.74 1.45 t-2.4 0.49 q-2.14 0 -3.44 -1.39 t-1.32 -3.53 q0 -2.12 1.33 -3.5 t3.47 -1.42 z M30 14.48 q-0.06 -1.22 -0.79 -1.93 t-2.05 -0.71 q-1.2 0 -2.02 0.68 t-1.02 1.96 l5.88 0 z M38.7 10.4 q0.36 0 0.64 0.1 l-0.1 1.58 q-0.44 -0.12 -0.84 -0.12 q-1.36 0 -2.05 0.89 t-0.69 2.51 l0 4.64 l-1.56 0 l0 -7.28 q0 -0.28 -0.08 -2.08 l1.48 0 q0.04 1.4 0.04 1.54 l0.04 0 q0.38 -0.8 1.23 -1.29 t1.89 -0.49 z M41.68000000000001 10.64 l2.9 7.34 l0.04 0 l2.78 -7.34 l1.7 0 l-4.58 11.66 q-0.54 1.4 -1.23 1.95 t-1.83 0.55 q-0.86 0 -1.4 -0.24 l0.2 -1.36 q0.28 0.16 1.16 0.16 q1.12 0 1.62 -1.38 l0.7 -1.92 l-3.88 -9.42 l1.82 0 z M53.14 7.98 l0 2.66 l2.76 0 l0 1.32 l-2.76 0 l0 5 q0 1.12 0.36 1.48 t1.04 0.36 q0.78 0 1.38 -0.32 l0.06 1.42 q-0.8 0.34 -1.82 0.34 q-1.44 0 -2.01 -0.71 t-0.57 -2.33 l0 -5.24 l-2.04 0 l0 -1.32 l2.04 0 l0 -2.66 l1.56 0 z M59.38 4.880000000000001 l0 7.06 l0.04 0 q0.42 -0.7 1.24 -1.12 t1.78 -0.42 q1.76 0 2.65 1.02 t0.89 2.72 l0 5.86 l-1.56 0 l0 -5.68 q0 -1.08 -0.5 -1.77 t-1.64 -0.71 q-1.44 0 -2.17 0.95 t-0.73 2.57 l0 4.64 l-1.56 0 l0 -15.12 l1.56 0 z M69.86000000000001 5.84 q0.46 0 0.8 0.33 t0.34 0.81 q0 0.5 -0.32 0.82 t-0.82 0.32 t-0.82 -0.32 t-0.32 -0.82 q0 -0.48 0.34 -0.81 t0.8 -0.33 z M70.64000000000001 10.64 l0 9.36 l-1.56 0 l0 -9.36 l1.56 0 z M78.34 10.4 q1.76 0 2.66 1.02 t0.9 2.72 l0 5.86 l-1.56 0 l0 -5.68 q0 -1.08 -0.5 -1.77 t-1.64 -0.71 q-1.44 0 -2.17 0.95 t-0.73 2.63 l0 4.58 l-1.56 0 l0 -7.28 q0 -0.1 -0.08 -2.08 l1.48 0 q0.04 1.4 0.04 1.54 l0.04 0 q0.38 -0.8 1.23 -1.29 t1.89 -0.49 z M89.28000000000002 10.4 q1.08 0 1.99 0.5 t1.33 1.34 l0.04 0 l0 -1.6 l1.56 0 l0 9.04 q0 2.4 -1.28 3.74 t-3.82 1.38 q-1.38 0 -2.5 -0.4 t-2.1 -1.38 l1.12 -1.28 q1.5 1.62 3.48 1.62 q3.54 0 3.54 -3.76 l0 -1.22 l-0.04 0 q-0.52 0.84 -1.44 1.29 t-1.88 0.45 q-2.16 0 -3.54 -1.35 t-1.42 -3.45 q0 -2.26 1.36 -3.58 t3.6 -1.34 z M86.00000000000001 15.32 q0 1.4 0.96 2.37 t2.34 0.99 q1.52 0 2.43 -0.98 t0.91 -2.42 q0 -1.54 -0.93 -2.48 t-2.43 -0.96 q-1.42 0 -2.35 1 t-0.93 2.48 z"></path></g><g id="SvgjsG4038" featureKey="duLK5n-0" transform="matrix(0.6479726661249674,0,0,0.6479726661249674,137.559378080312,81.55278592293818)" fill="#303841"><path d="M8.22 10.84 l5.92 0 l0 6.3 c-1.42 1.9 -3.66 3.08 -6.02 3.08 c-4.1 0 -7.44 -3.34 -7.44 -7.46 c0 -4.1 3.34 -7.44 7.44 -7.44 c2.02 0 3.9 0.8 5.28 2.2 l-1.32 1.16 c-1.04 -1.04 -2.46 -1.6 -3.96 -1.6 c-3.14 0 -5.68 2.54 -5.68 5.68 c0 3.16 2.54 5.7 5.68 5.7 c1.66 0 3.18 -0.7 4.28 -1.92 l0 -3.94 l-4.18 0 l0 -1.76 z M31.396000000000004 20 l0 -14.24 l9 0 l0 1.72 l-7.2 0 l0 3.34 l6.28 0 l0 1.78 l-6.28 0 l0 5.64 l7.02 0 l0 1.76 l-8.82 0 z M63.412 5.32 c4.1 0 7.46 3.34 7.46 7.46 c0 4.1 -3.36 7.42 -7.46 7.42 s-7.44 -3.32 -7.44 -7.42 c0 -4.12 3.34 -7.46 7.44 -7.46 z M63.412 18.44 c3.12 0 5.64 -2.56 5.64 -5.66 c0 -3.12 -2.52 -5.7 -5.64 -5.7 s-5.64 2.58 -5.64 5.7 c0 3.1 2.52 5.66 5.64 5.66 z M92.108 20.14 c-0.48 0 -0.96 -0.06 -1.44 -0.16 c-1.48 -0.3 -2.94 -1.04 -4.24 -2.16 l1.18 -1.34 c1.06 0.92 2.24 1.54 3.42 1.78 c1 0.22 1.98 0.14 2.76 -0.22 c0.52 -0.24 1.42 -0.84 1.42 -2.06 c0 -1.5 -1.6 -2.04 -3.16 -2.34 c-0.14 -0.02 -2.38 -0.48 -3.28 -1 c-1.2 -0.72 -1.84 -1.8 -1.84 -3.12 c0 -0.74 0.24 -1.44 0.66 -2.06 c0.42 -0.56 1 -1.02 1.68 -1.34 c1 -0.48 2.18 -0.62 3.38 -0.42 c1.3 0.22 2.62 0.84 3.78 1.8 l-1.14 1.38 c-2.06 -1.7 -4.06 -1.74 -5.26 -1.18 c-0.82 0.38 -1.3 1.08 -1.3 1.8 c0 1.36 1.16 1.88 3 2.28 c0.76 0.18 2.34 0.44 3.28 0.98 c1.3 0.72 1.98 1.84 1.98 3.22 c0 0.82 -0.22 1.58 -0.68 2.24 c-0.42 0.6 -1.06 1.06 -1.78 1.42 c-0.76 0.38 -1.54 0.5 -2.42 0.5 z M113.584 20 l0 -14.24 l4.96 0 c0.9 0 1.76 0.36 2.4 1 s1 1.5 1 2.4 c0 1.88 -1.54 3.38 -3.4 3.38 l-3.18 0 l0 7.46 l-1.78 0 z M118.544 10.8 c0.88 0 1.6 -0.74 1.6 -1.64 s-0.72 -1.66 -1.6 -1.66 l-3.18 0 l0 3.3 l3.18 0 z M146.9 20 l-1.58 -4.14 l-5.82 0 l-1.58 4.14 l-1.92 0 l5.48 -14.24 l1.86 0 l5.5 14.24 l-1.94 0 z M144.62 14.1 l-2.2 -5.76 l-2.22 5.76 l4.42 0 z M167.796 20 l0 -12.48 l-3.76 0 l0 -1.76 l9.32 0 l0 1.76 l-3.76 0 l0 12.48 l-1.8 0 z M190.752 20 l0 -14.24 l1.8 0 l0 14.24 l-1.8 0 z M219.90800000000002 20 l-1.58 -4.14 l-5.82 0 l-1.58 4.14 l-1.92 0 l5.48 -14.24 l1.86 0 l5.5 14.24 l-1.94 0 z M217.62800000000001 14.1 l-2.2 -5.76 l-2.22 5.76 l4.42 0 z M238.00400000000002 20 l0 -14.24 l1.8 0 l0 12.5 l7.8 0 l0 1.74 l-9.6 0 z"></path></g>
			</g>
		</svg>
	